<svg xmlns="http://www.w3.org/2000/svg" viewBox="0 0 2320 1100"><defs><style>.cls-1{fill:#00a278;}</style></defs><g id="Isotipo"><g id="Vidovic_Systems-Isotipo_principal" data-name="Vidovic Systems-Isotipo principal"><g id="hormiga"><path class="cls-1" d="M1810.06,10V117.92l34.78-34.78V10ZM1698.59,658.93V807.65h41V699.86Zm17.26-367.71V436.5l40.92-40.89V291.22Z"/><path class="cls-1" d="M2162.08,10V83.14l34.78,34.78V10Zm105.31,689.86V807.65h40.94V658.93Zm-17.23-408.64V395.61l40.92,40.89V291.22Z"/><polygon class="cls-1" points="2099.61 560.34 2038.41 600.45 2116.93 652.35 2214.07 774.38 2214.76 929.88 2003.46 1090 1792.17 929.88 1792.85 774.38 1889.99 652.35 1968.51 600.45 1907.32 560.34 1741.94 672.96 1712.1 643.12 1872.1 539.18 1732.41 449.25 1760.53 421.13 1907.34 514.61 1968.35 473.86 1968.38 473.82 1831.37 373.1 1831.37 223.28 1876.12 192.92 1819.52 137.78 1848.34 108.96 1910.55 169.7 2003.46 106.91 2096.38 169.7 2158.58 108.96 2187.4 137.78 2130.81 192.92 2175.56 223.28 2175.56 373.1 2038.55 473.82 2038.58 473.86 2099.59 514.61 2246.39 421.13 2274.51 449.25 2134.82 539.18 2294.82 643.12 2264.99 672.96 2099.61 560.34"/></g><g id="v"><polygon class="cls-1" points="613.28 684.07 481.83 1035.11 11.67 64.89 269.81 64.89 613.28 684.07"/><polygon class="cls-1" points="844.89 64.89 650 585.77 361.04 64.89 844.89 64.89"/></g><path id="s" class="cls-1" d="M1057.15,1001.38q-82.35-33.72-131.58-99.85t-52-159.24h245.59q5.38,52.63,36.43,80.29t81,27.66q51.27,0,81-23.61t29.68-65.45q0-35.07-23.62-58t-58-37.78q-34.39-14.83-97.82-33.74Q1076,603.31,1018,575T918.15,491.3Q876.32,436,876.32,346.92q0-132.24,95.81-207.14t249.64-74.89q156.52,0,252.34,74.89t102.55,208.48H1327q-2.73-45.86-33.74-72.19t-79.62-26.31q-41.84,0-67.47,22.26t-25.64,64.1q0,45.88,43.18,71.52T1298.68,463q91.75,31,149.11,59.37T1547,604.65q41.79,54,41.83,139,0,81-41.16,147.09T1428.23,996q-78.27,39.15-184.87,39.13Q1139.44,1035.11,1057.15,1001.38Z"/></g></g></svg>